# xmcd
# Track frame offsets:
# 150
# 9838
# 19780
# 29270
# 35876
# 44015
# 52421
# 58137
# 68640
# 78274
# 85644
# 95546
# 105194
# 114313
# 122452
# 129811
#
# Disc length: 1865 seconds
# Revision: 0
# Processed by: cddbd v1.5.1PL2 Copyright (c) Steve Scherf et al.
# Submitted via: VisiTrax 2.10.0.248 - For more info visit www.synapsa.com
#
DISCID=c3074710
DTITLE=Johnny Cash - Story of a Broken Heart
DYEAR=1959
DGENRE=Country
TTITLE0=Story Of A Broken Heart
TTITLE1=Goodbye Little Darling
TTITLE2=Just About time
TTITLE3=You're My Baby
TTITLE4=Always Alone
TTITLE5=Katy Too
TTITLE6=You Tell Me
TTITLE7=I Just Thought You'd Like To Know
TTITLE8=Born To Loose
TTITLE9=If The Good Lord's Willing
TTITLE10=I Was There When It Happened
TTITLE11=The Ways Of A Woman In Love
TTITLE12=Remember Me
TTITLE13=Guess Things Happen That Way
TTITLE14=Come In Stranger
TTITLE15=Straight A's In Love
EXTD=LP (Pickwick (UK) - SHM 897)
EXTT0=
EXTT1=
EXTT2=
EXTT3=
EXTT4=
EXTT5=
EXTT6=
EXTT7=
EXTT8=
EXTT9=
EXTT10=
EXTT11=
EXTT12=
EXTT13=
EXTT14=
EXTT15=
PLAYORDER=
